<?xml version="1.0" encoding="utf-8"?>
<!-- Generator: Adobe Illustrator 26.0.1, SVG Export Plug-In . SVG Version: 6.00 Build 0)  -->
<svg version="1.1" id="图层_1" xmlns="http://www.w3.org/2000/svg" xmlns:xlink="http://www.w3.org/1999/xlink" x="0px" y="0px"
	 viewBox="0 0 200 200" style="enable-background:new 0 0 200 200;" xml:space="preserve">
<path d="M100,183.3c-46,0-83.3-37.3-83.3-83.3S54,16.7,100,16.7S183.3,54,183.3,100S146,183.3,100,183.3L100,183.3z M100,170.8
	c39.1,0,70.8-31.7,70.8-70.8S139.1,29.2,100,29.2S29.2,60.9,29.2,100S60.9,170.8,100,170.8L100,170.8z M101.6,118.9l-15.9-17.3
	L67,121c-2.4,2.5-6.4,2.6-8.8,0.2c-2.5-2.4-2.6-6.4-0.2-8.8l23.3-24.2c2.4-2.5,6.4-2.6,8.8-0.2c0.1,0.1,0.2,0.2,0.3,0.3l16,17.4
	l26.7-26.8c2.4-2.5,6.4-2.6,8.8-0.2c2.5,2.4,2.6,6.4,0.2,8.8c-0.1,0.1-0.1,0.1-0.2,0.2l-31.3,31.4c-2.4,2.4-6.4,2.5-8.8,0
	C101.7,119.1,101.7,119,101.6,118.9L101.6,118.9z"/>
</svg>
