<?xml version="1.0" encoding="utf-8"?>
<!-- Generator: Adobe Illustrator 26.0.1, SVG Export Plug-In . SVG Version: 6.00 Build 0)  -->
<svg version="1.1" id="图层_1" xmlns="http://www.w3.org/2000/svg" xmlns:xlink="http://www.w3.org/1999/xlink" x="0px" y="0px"
	 viewBox="0 0 200 200" style="enable-background:new 0 0 200 200;" xml:space="preserve">
<path d="M100,12.5c48.3,0,87.5,39.2,87.5,87.5s-39.2,87.5-87.5,87.5S12.5,148.3,12.5,100S51.7,12.5,100,12.5z M100,25
	c-41.4,0-75,33.6-75,75s33.6,75,75,75s75-33.6,75-75S141.4,25,100,25z M150,87.5c6.9,0,12.5,5.6,12.5,12.5c0,6.9-5.6,12.5-12.5,12.5
	s-12.5-5.6-12.5-12.5C137.5,93.1,143.1,87.5,150,87.5z M100,87.5c6.9,0,12.5,5.6,12.5,12.5c0,6.9-5.6,12.5-12.5,12.5
	c-6.9,0-12.5-5.6-12.5-12.5C87.5,93.1,93.1,87.5,100,87.5z M50,87.5c6.9,0,12.5,5.6,12.5,12.5c0,6.9-5.6,12.5-12.5,12.5
	s-12.5-5.6-12.5-12.5C37.5,93.1,43.1,87.5,50,87.5z"/>
</svg>
