<?xml version="1.0" encoding="utf-8"?>
<!-- Generator: Adobe Illustrator 26.0.1, SVG Export Plug-In . SVG Version: 6.00 Build 0)  -->
<svg version="1.1" id="图层_1" xmlns="http://www.w3.org/2000/svg" xmlns:xlink="http://www.w3.org/1999/xlink" x="0px" y="0px"
	 viewBox="0 0 200 200" style="enable-background:new 0 0 200 200;" xml:space="preserve">
<path d="M57.8,48.8c-0.9,0-1.6,0.7-1.6,1.6l0,0v9.4c0,0.9,0.7,1.6,1.6,1.6h75c0.9,0,1.6-0.7,1.6-1.6v-9.4c0-0.9-0.7-1.6-1.6-1.6
	C132.8,48.8,57.8,48.8,57.8,48.8z M93.8,77H57.8c-0.9,0-1.6,0.7-1.6,1.6v9.4c0,0.9,0.7,1.6,1.6,1.6h35.9c0.9,0,1.6-0.7,1.6-1.6v-9.4
	C95.3,77.6,94.6,77,93.8,77z M84.4,166.4H40.6V28.9H150v62.5c0,0.8,0.7,1.6,1.6,1.6h10.9c0.9,0,1.6-0.7,1.6-1.6V21.1
	c0-3.5-2.8-6.3-6.2-6.3h-125c-3.5,0-6.2,2.8-6.2,6.3v153.1c0,3.5,2.8,6.2,6.2,6.2h51.6c0.9,0,1.6-0.7,1.6-1.6c0,0,0,0,0,0V168
	C85.9,167.1,85.3,166.4,84.4,166.4C84.4,166.4,84.4,166.4,84.4,166.4L84.4,166.4z M170.3,149.2h-28.1v-7.1
	c11.6-3.5,18.2-15.6,14.7-27.2s-15.6-18.2-27.2-14.7s-18.2,15.6-14.7,27.2c2.1,7.1,7.6,12.6,14.7,14.7v7.1h-28.1
	c-1.7,0-3.1,1.4-3.1,3.1V182c0,1.7,1.4,3.1,3.1,3.1h68.8c1.7,0,3.1-1.4,3.1-3.1v-29.7C173.4,150.6,172,149.2,170.3,149.2
	L170.3,149.2z M126.2,121.1c-0.2-5.4,4-9.9,9.4-10.1c5.4-0.2,9.9,4,10.1,9.4c0,0.2,0,0.5,0,0.7c-0.2,5.4-4.7,9.6-10.1,9.4
	C130.5,130.3,126.4,126.2,126.2,121.1L126.2,121.1z M161.3,173.1h-50.8v-11.7h50.8V173.1z"/>
</svg>
